<svg width="190" height="65" viewBox="0 0 190 65" fill="none" xmlns="http://www.w3.org/2000/svg">
<rect width="190" height="65" rx="5" fill="#181426"/>
<path d="M67.2439 19.5102C67.2439 20.598 66.9727 21.5498 66.2947 22.2297C65.4811 23.0455 64.5319 23.4534 63.3114 23.4534C62.091 23.4534 61.1418 23.0455 60.3282 22.2297C59.5146 21.4138 59.1078 20.462 59.1078 19.2383C59.1078 18.0146 59.5146 17.0628 60.3282 16.2469C61.1418 15.4311 62.091 15.0232 63.3114 15.0232C63.8538 15.0232 64.3963 15.1592 64.9387 15.4311C65.4811 15.7031 65.8879 15.975 66.1591 16.3829L65.4811 17.0628C64.9387 16.3829 64.2607 16.111 63.3114 16.111C62.4978 16.111 61.6842 16.3829 61.1418 17.0628C60.4638 17.6066 60.1926 18.4225 60.1926 19.3743C60.1926 20.3261 60.4638 21.1419 61.1418 21.6858C61.8198 22.2297 62.4978 22.6376 63.3114 22.6376C64.2607 22.6376 64.9387 22.3656 65.6167 21.6858C66.0235 21.2779 66.2947 20.734 66.2947 20.0541H63.3114V19.1023H67.2439V19.5102Z" fill="white"/>
<path d="M73.4816 16.111H69.8204V18.6944H73.2104V19.6462H69.8204V22.2297H73.4816V23.1815H68.7355V15.0232H73.4816V16.111Z" fill="white"/>
<path d="M77.9565 23.1815H76.8717V15.975H74.5664V15.0232H80.2617V15.975H77.9565V23.1815Z" fill="white"/>
<path d="M84.1942 23.1815V15.0232H85.279V23.1815H84.1942Z" fill="white"/>
<path d="M89.8895 23.1815H88.8047V15.975H86.4995V15.0232H92.0592V15.975H89.7539V23.1815H89.8895Z" fill="white"/>
<path fill-rule="evenodd" clip-rule="evenodd" d="M99.7885 23.3174C101.009 23.3174 101.958 22.9095 102.772 22.0937C103.585 21.2779 103.992 20.3261 103.992 19.1023C103.992 17.8786 103.585 16.9268 102.772 16.1109C101.958 15.2951 101.009 14.8872 99.7885 14.8872C98.5681 14.8872 97.6189 15.2951 96.8053 16.1109C95.9916 16.9268 95.5848 17.8786 95.5848 19.1023C95.5848 20.3261 95.9916 21.2779 96.8053 22.0937C97.6189 22.9095 98.5681 23.3174 99.7885 23.3174ZM99.7885 22.3656C98.9749 22.3656 98.1613 21.9577 97.6189 21.4138C96.9409 20.8699 96.6697 20.0541 96.6697 19.1023C96.6697 18.1505 97.0765 17.3347 97.6189 16.7908C98.1613 16.1109 98.9749 15.839 99.7885 15.839C100.602 15.839 101.416 16.2469 101.958 16.7908C102.636 17.3347 102.907 18.1505 102.907 19.1023C102.907 20.0541 102.501 20.8699 101.958 21.4138C101.416 22.0937 100.602 22.3656 99.7885 22.3656Z" fill="white"/>
<path d="M105.484 23.1815V15.0232H106.704L110.637 21.4138V19.7822V15.0232H111.722V23.1815H110.637L106.433 16.5189V18.1505V23.1815H105.484Z" fill="white"/>
<path fill-rule="evenodd" clip-rule="evenodd" d="M67.6507 36.9144V39.3619H73.4816C73.346 40.7216 72.8036 41.8094 72.1256 42.4892C71.312 43.305 69.9559 44.2568 67.6507 44.2568C63.9894 44.2568 61.2774 41.4014 61.2774 37.7302C61.2774 34.059 64.125 31.2036 67.6507 31.2036C69.5491 31.2036 71.0408 32.0194 72.1256 32.9712L73.8884 31.2036C72.3968 29.8439 70.4983 28.7561 67.7863 28.7561C62.9046 28.7561 58.7009 32.8352 58.7009 37.7302C58.7009 42.6252 62.9046 46.7043 67.7863 46.7043C70.4983 46.7043 72.3968 45.8885 74.024 44.1209C75.6512 42.4892 76.1937 40.1777 76.1937 38.4101C76.1937 37.8662 76.1937 37.3223 76.0581 36.9144H67.6507ZM82.7026 35.1468C79.4481 35.1468 76.8717 37.5942 76.8717 40.9935C76.8717 44.2568 79.4481 46.8403 82.7026 46.8403C85.957 46.8403 88.5335 44.3928 88.5335 40.9935C88.5335 37.5942 85.957 35.1468 82.7026 35.1468ZM89.4827 40.9935C89.4827 37.5942 92.0591 35.1468 95.3136 35.1468C98.5681 35.1468 101.145 37.5942 101.145 40.9935C101.145 44.3928 98.5681 46.8403 95.3136 46.8403C92.0591 46.8403 89.4827 44.2568 89.4827 40.9935ZM92.0591 40.8576C92.0591 42.8971 93.5508 44.3928 95.3136 44.3928C97.0764 44.3928 98.5681 42.8971 98.5681 40.8576C98.5681 38.682 97.0764 37.3223 95.3136 37.3223C93.5508 37.3223 92.0591 38.818 92.0591 40.8576ZM79.4481 40.8576C79.4481 42.8971 80.9397 44.3928 82.7026 44.3928C84.4654 44.3928 85.957 42.8971 85.957 40.8576C85.957 38.682 84.4654 37.3223 82.7026 37.3223C80.9397 37.3223 79.4481 38.818 79.4481 40.8576ZM124.333 35.1468C127.316 35.1468 128.672 37.4583 129.214 38.818L129.485 39.4978L121.756 42.7612C122.434 43.9849 123.248 44.5288 124.604 44.5288C125.96 44.5288 126.773 43.8489 127.451 42.8971L129.35 44.2568C128.807 45.2086 127.18 46.8403 124.604 46.8403C121.349 46.8403 118.908 44.2568 118.908 40.9935C118.908 37.4583 121.349 35.1468 124.333 35.1468ZM121.349 40.7216C121.349 38.546 123.112 37.3223 124.333 37.3223C125.282 37.3223 126.231 37.8662 126.502 38.546L121.349 40.7216ZM117.552 46.2964H114.976V29.3H117.552V46.2964ZM110.908 36.3705C110.23 35.6906 109.145 35.0108 107.789 35.0108C104.941 35.0108 102.229 37.5942 102.229 40.8576C102.229 44.1209 104.806 46.5684 107.789 46.5684C109.145 46.5684 110.23 45.8885 110.772 45.2086H110.908V46.0245C110.908 48.2 109.687 49.4237 107.789 49.4237C106.297 49.4237 105.213 48.336 104.941 47.3842L102.772 48.336C103.45 49.8317 105.077 51.7353 107.925 51.7353C110.908 51.7353 113.349 49.9676 113.349 45.7525V35.4187H110.908V36.3705ZM104.67 40.8576C104.67 42.8971 106.162 44.3928 107.925 44.3928C109.687 44.3928 111.043 42.8971 111.043 40.8576C111.043 38.818 109.687 37.3223 107.925 37.3223C106.162 37.3223 104.67 38.818 104.67 40.8576ZM141.012 29.3H134.91V46.2964H137.486V39.9058H141.012C143.859 39.9058 146.571 37.8662 146.571 34.6029C146.571 31.3396 143.859 29.3 141.012 29.3ZM137.486 37.4583H141.147C142.91 37.4583 143.995 35.9626 144.131 34.4669C144.131 33.2432 143.046 31.6115 141.147 31.6115H137.486V37.4583ZM156.742 35.0108C154.843 35.0108 152.945 35.8266 152.267 37.5942L154.572 38.546C155.114 37.5942 155.928 37.3223 156.877 37.3223C158.233 37.3223 159.454 38.1381 159.589 39.4978V39.6338C159.182 39.3619 158.098 38.954 157.013 38.954C154.572 38.954 152.131 40.3137 152.131 42.7612C152.131 45.0727 154.165 46.5684 156.335 46.5684C158.098 46.5684 158.911 45.7525 159.589 44.9367H159.725V46.2964H162.166V39.7698C161.894 36.7784 159.589 35.0108 156.742 35.0108ZM154.436 42.8971C154.436 43.9849 155.657 44.3928 156.47 44.3928C157.826 44.3928 159.182 43.305 159.454 41.6734C159.385 41.646 159.319 41.6187 159.252 41.5916L159.252 41.5912C158.66 41.3493 158.124 41.1295 157.148 41.1295C155.928 41.1295 154.436 41.5374 154.436 42.8971ZM170.709 35.4187L167.861 42.7612H167.725L164.742 35.4187H162.03L166.505 45.7525L163.928 51.4633H166.505L173.421 35.4187H170.709ZM150.504 46.2964H147.927V29.3H150.504V46.2964Z" fill="white"/>
<path d="M17.071 15.8389C16.6641 16.2468 16.3929 16.9266 16.3929 17.7425V47.7921C16.3929 48.608 16.6641 49.2878 17.071 49.6957L17.2066 49.8317L34.0213 32.9713V32.8353V32.6993L17.071 15.8389Z" fill="url(#paint0_linear)"/>
<path d="M39.581 38.5461L34.0213 32.9713V32.8353V32.6993L39.581 26.8525L39.7166 26.9885L46.3611 30.7957C48.2595 31.8835 48.2595 33.6511 46.3611 34.7389L39.581 38.5461Z" fill="url(#paint1_linear)"/>
<path d="M39.7166 38.4103L34.0213 32.6995L17.071 49.6959C17.749 50.3757 18.6982 50.3757 19.9186 49.8319L39.7166 38.4103Z" fill="url(#paint2_linear)"/>
<path d="M39.7166 26.9887L19.9186 15.7031C18.6982 15.0232 17.749 15.1592 17.071 15.839L34.0213 32.8355L39.7166 26.9887Z" fill="url(#paint3_linear)"/>
<path opacity="0.2" d="M39.581 38.2744L19.9186 49.4241C18.8338 50.1039 17.8846 49.968 17.2066 49.4241L17.071 49.56L17.2066 49.696C17.8846 50.2399 18.8338 50.3759 19.9186 49.696L39.581 38.2744Z" fill="black"/>
<path opacity="0.12" d="M17.071 49.4241C16.6642 49.0162 16.393 48.3363 16.393 47.5205V47.6565C16.393 48.4723 16.6642 49.1522 17.071 49.5601V49.4241Z" fill="black"/>
<path opacity="0.12" d="M46.3611 34.4671L39.581 38.2743L39.7166 38.4103L46.3611 34.6031C47.3103 34.0592 47.7171 33.3793 47.7171 32.6995C47.7171 33.3793 47.1747 34.0592 46.3611 34.4671Z" fill="black"/>
<path opacity="0.25" d="M19.9186 15.8389L46.3611 30.9317C47.1747 31.4756 47.7171 32.0195 47.7171 32.6994C47.7171 32.0195 47.3103 31.3397 46.3611 30.7958L19.9186 15.7029C18.0202 14.6152 16.5286 15.567 16.5286 17.7425V17.8785C16.5286 15.7029 18.0202 14.7511 19.9186 15.8389Z" fill="white"/>
<defs>
<linearGradient id="paint0_linear" x1="46.5166" y1="-64.2183" x2="-39.3072" y2="-57.9941" gradientUnits="userSpaceOnUse">
<stop stop-color="#00A0FF"/>
<stop offset="0.00657445" stop-color="#00A1FF"/>
<stop offset="0.2601" stop-color="#00BEFF"/>
<stop offset="0.5122" stop-color="#00D2FF"/>
<stop offset="0.7604" stop-color="#00DFFF"/>
<stop offset="1" stop-color="#00E3FF"/>
</linearGradient>
<linearGradient id="paint1_linear" x1="48.8486" y1="18.784" x2="16.037" y2="18.784" gradientUnits="userSpaceOnUse">
<stop stop-color="#FFE000"/>
<stop offset="0.4087" stop-color="#FFBD00"/>
<stop offset="0.7754" stop-color="#FFA500"/>
<stop offset="1" stop-color="#FF9C00"/>
</linearGradient>
<linearGradient id="paint2_linear" x1="3.24897" y1="20.1374" x2="-16.6368" y2="75.7347" gradientUnits="userSpaceOnUse">
<stop stop-color="#FF3A44"/>
<stop offset="1" stop-color="#C31162"/>
</linearGradient>
<linearGradient id="paint3_linear" x1="-1.90573" y1="-0.940024" x2="7.03369" y2="23.7436" gradientUnits="userSpaceOnUse">
<stop stop-color="#32A071"/>
<stop offset="0.0685" stop-color="#2DA771"/>
<stop offset="0.4762" stop-color="#15CF74"/>
<stop offset="0.8009" stop-color="#06E775"/>
<stop offset="1" stop-color="#00F076"/>
</linearGradient>
</defs>
</svg>
