<svg width="109" height="46" viewBox="0 0 109 46" fill="none" xmlns="http://www.w3.org/2000/svg">
<rect width="109" height="46" fill="#EEEBEB"/>
<g clip-path="url(#clip0)">
<rect width="1440" height="4813" transform="translate(-104 -4632)" fill="white"/>
<rect x="-104" y="-1064" width="1440" height="1248" fill="#3A2E91" stroke="#3A2E91"/>
<g clip-path="url(#clip1)">
<rect width="109" height="46" rx="5" fill="black" fill-opacity="0.299473"/>
<g clip-path="url(#clip2)">
<path d="M45.442 30L46.394 27.83H51.336L52.288 30H53.464L49.306 20.55H48.41L44.252 30H45.442ZM50.874 26.78H46.856L48.872 22.174L50.874 26.78ZM54.6027 30H55.6247V26.36C55.6247 25.842 55.8067 25.422 56.1847 25.072C56.5627 24.722 57.0247 24.554 57.5707 24.554C58.5927 24.554 59.3627 25.324 59.3627 26.346V30H60.3987V26.066C60.3987 25.352 60.1607 24.75 59.6707 24.274C59.1947 23.798 58.5927 23.56 57.8507 23.56C56.8287 23.56 56.0867 23.952 55.6247 24.75V23.7H54.6027V30ZM64.9079 23.56C64.0259 23.56 63.2839 23.882 62.6819 24.512C62.0939 25.142 61.7999 25.912 61.7999 26.85C61.7999 27.788 62.0939 28.572 62.6819 29.202C63.2839 29.832 64.0259 30.14 64.9079 30.14C65.8319 30.14 66.5879 29.804 67.1899 29.132V30H68.2119V19.85H67.1899V24.568C66.5879 23.896 65.8319 23.56 64.9079 23.56ZM66.5459 25.24C66.9519 25.674 67.1619 26.206 67.1619 26.85C67.1619 27.494 66.9519 28.026 66.5459 28.46C66.1399 28.894 65.6219 29.104 65.0199 29.104C64.4179 29.104 63.8999 28.894 63.4939 28.46C63.0879 28.026 62.8779 27.494 62.8779 26.85C62.8779 26.206 63.0879 25.674 63.4939 25.24C63.8999 24.806 64.4179 24.596 65.0199 24.596C65.6219 24.596 66.1399 24.806 66.5459 25.24ZM70.9919 26.444C70.9919 25.926 71.1739 25.506 71.5519 25.156C71.9299 24.806 72.3919 24.638 72.9379 24.638C73.1059 24.638 73.2599 24.666 73.3999 24.708V23.56H73.2179C72.2099 23.56 71.4679 23.966 70.9919 24.764V23.7H69.9699V30H70.9919V26.444ZM75.586 30V23.7H74.55V30H75.586ZM74.354 21.642C74.354 22.076 74.662 22.356 75.068 22.356C75.474 22.356 75.768 22.048 75.768 21.642C75.852 20.732 74.284 20.732 74.354 21.642ZM77.941 29.202C78.571 29.832 79.355 30.14 80.293 30.14C81.231 30.14 82.001 29.832 82.631 29.202C83.261 28.572 83.583 27.788 83.583 26.85C83.583 25.912 83.261 25.128 82.631 24.498C82.001 23.868 81.231 23.56 80.293 23.56C79.355 23.56 78.571 23.868 77.941 24.498C77.311 25.128 77.003 25.912 77.003 26.85C77.003 27.788 77.311 28.572 77.941 29.202ZM78.711 25.24C79.131 24.806 79.663 24.596 80.293 24.596C80.923 24.596 81.455 24.806 81.875 25.24C82.295 25.674 82.505 26.206 82.505 26.85C82.505 27.494 82.295 28.026 81.875 28.46C81.455 28.894 80.923 29.104 80.293 29.104C79.663 29.104 79.131 28.894 78.711 28.46C78.291 28.026 78.081 27.494 78.081 26.85C78.081 26.206 78.291 25.674 78.711 25.24ZM87.781 23.56C86.899 23.56 86.157 23.882 85.555 24.512C84.967 25.142 84.673 25.912 84.673 26.85C84.673 27.788 84.967 28.572 85.555 29.202C86.157 29.832 86.899 30.14 87.781 30.14C88.705 30.14 89.461 29.804 90.063 29.132V30H91.085V19.85H90.063V24.568C89.461 23.896 88.705 23.56 87.781 23.56ZM89.419 25.24C89.825 25.674 90.035 26.206 90.035 26.85C90.035 27.494 89.825 28.026 89.419 28.46C89.013 28.894 88.495 29.104 87.893 29.104C87.291 29.104 86.773 28.894 86.367 28.46C85.961 28.026 85.751 27.494 85.751 26.85C85.751 26.206 85.961 25.674 86.367 25.24C86.773 24.806 87.291 24.596 87.893 24.596C88.495 24.596 89.013 24.806 89.419 25.24Z" fill="white"/>
<circle cx="26" cy="23" r="16" fill="#3C414E" fill-opacity="0.01"/>
<path fill-rule="evenodd" clip-rule="evenodd" d="M29.785 13.126C29.952 12.958 30.201 12.958 30.368 13.126V13.127C30.535 13.294 30.535 13.543 30.368 13.71L29.283 14.793C29.632 15.027 29.949 15.312 30.225 15.639C30.885 16.421 31.306 17.438 31.363 18.541L31.366 18.575C31.369 18.65 31.371 18.726 31.371 18.802H21.348C21.348 18.725 21.35 18.65 21.353 18.575L21.355 18.541C21.414 17.439 21.834 16.421 22.494 15.639C22.769 15.313 23.086 15.027 23.436 14.793L22.351 13.709C22.184 13.542 22.184 13.293 22.351 13.126C22.518 12.958 22.767 12.958 22.935 13.126L24.055 14.244L24.107 14.295C24.772 13.962 25.517 13.796 26.347 13.795H26.372C27.202 13.796 27.947 13.962 28.612 14.295L28.663 14.244L29.785 13.126ZM19.26 27.989C19.929 27.989 20.512 27.406 20.512 26.737V20.889C20.512 20.224 19.929 19.639 19.26 19.639C18.591 19.639 18.008 20.223 18.008 20.888V26.736C18.008 27.404 18.591 27.988 19.26 27.988V27.989ZM29.699 31.748C29.699 32.417 29.116 33 28.447 33C27.778 33 27.195 32.417 27.195 31.748V28.825H25.523V31.748C25.523 32.417 24.94 33 24.272 33C23.603 33 23.02 32.417 23.02 31.748V28.825H22.184C21.682 28.825 21.348 28.49 21.348 27.989V19.639H31.371V27.989C31.371 28.49 31.036 28.824 30.535 28.824H29.699V31.748ZM34.71 26.737C34.71 27.406 34.127 27.989 33.459 27.989C32.79 27.989 32.207 27.405 32.207 26.737V20.889C32.207 20.224 32.789 19.639 33.459 19.639C34.127 19.639 34.71 20.224 34.71 20.889V26.737ZM24.27 17.342C23.924 17.342 23.644 17.062 23.644 16.716C23.644 16.37 23.924 16.09 24.27 16.09C24.616 16.09 24.896 16.37 24.896 16.716C24.896 17.062 24.616 17.342 24.27 17.342ZM27.822 16.716C27.822 17.062 28.103 17.342 28.449 17.342C28.795 17.342 29.075 17.062 29.075 16.716C29.075 16.37 28.794 16.09 28.449 16.09C28.102 16.09 27.822 16.37 27.822 16.716Z" fill="white"/>
</g>
</g>
</g>
<defs>
<clipPath id="clip0">
<rect width="1440" height="4813" fill="white" transform="translate(-104 -4632)"/>
</clipPath>
<clipPath id="clip1">
<rect width="354" height="193" fill="white" transform="translate(0 -97)"/>
</clipPath>
<clipPath id="clip2">
<rect width="76" height="32" fill="white" transform="translate(16 7)"/>
</clipPath>
</defs>
</svg>
