<svg width="50" height="50" viewBox="0 0 50 50" fill="none" xmlns="http://www.w3.org/2000/svg">
<rect width="50" height="50" rx="10" fill="white"/>
<rect x="2.5" y="2.5" width="45" height="45" rx="7.5" stroke="#E73E89" stroke-opacity="0.2" stroke-width="5"/>
<path fill-rule="evenodd" clip-rule="evenodd" d="M15.2586 25C15.2586 19.6286 19.6286 15.2587 25 15.2587C30.3714 15.2587 34.7414 19.6286 34.7414 25C34.7414 30.3715 30.3714 34.7414 25 34.7414C19.6286 34.7414 15.2586 30.3715 15.2586 25ZM16.1207 25C16.1207 29.896 20.1039 33.8794 25 33.8794C29.8959 33.8794 33.8793 29.896 33.8793 25C33.8793 20.1041 29.8959 16.1207 25 16.1207C20.1039 16.1207 16.1207 20.1041 16.1207 25Z" fill="#E73E89"/>
<path d="M25 14.9087C19.4353 14.9087 14.9086 19.4353 14.9086 25H15.6086C15.6086 19.8219 19.8219 15.6087 25 15.6087V14.9087ZM35.0914 25C35.0914 19.4353 30.5647 14.9087 25 14.9087V15.6087C30.1781 15.6087 34.3914 19.8219 34.3914 25H35.0914ZM25 35.0914C30.5647 35.0914 35.0914 30.5648 35.0914 25H34.3914C34.3914 30.1782 30.1781 34.3914 25 34.3914V35.0914ZM14.9086 25C14.9086 30.5648 19.4353 35.0914 25 35.0914V34.3914C19.8219 34.3914 15.6086 30.1782 15.6086 25H14.9086ZM25 33.5294C20.2972 33.5294 16.4707 29.7027 16.4707 25H15.7707C15.7707 30.0893 19.9106 34.2294 25 34.2294V33.5294ZM33.5293 25C33.5293 29.7027 29.7026 33.5294 25 33.5294V34.2294C30.0892 34.2294 34.2293 30.0893 34.2293 25H33.5293ZM25 16.4707C29.7026 16.4707 33.5293 20.2974 33.5293 25H34.2293C34.2293 19.9108 30.0892 15.7707 25 15.7707V16.4707ZM16.4707 25C16.4707 20.2974 20.2972 16.4707 25 16.4707V15.7707C19.9106 15.7707 15.7707 19.9108 15.7707 25H16.4707Z" fill="#E73E89"/>
<path fill-rule="evenodd" clip-rule="evenodd" d="M30.2138 24.306C30.4519 24.306 30.6448 24.113 30.6448 23.8749C30.6448 23.6369 30.4519 23.4439 30.2138 23.4439H28.6173V20.1078C28.6173 19.8697 28.4243 19.6767 28.1863 19.6767C27.9482 19.6767 27.7552 19.8697 27.7552 20.1078V23.4439H24.6391L22.3959 19.8781C22.2935 19.7155 22.0955 19.64 21.9117 19.6936C21.7271 19.7468 21.6 19.9158 21.6 20.1078V23.4439H19.7861C19.5481 23.4439 19.3551 23.6369 19.3551 23.8749C19.3551 24.113 19.5481 24.306 19.7861 24.306H21.6V25.7611H19.7861C19.5481 25.7611 19.3551 25.954 19.3551 26.1921C19.3551 26.4302 19.5481 26.6231 19.7861 26.6231H21.6V29.8923C21.6 30.1303 21.793 30.3233 22.0311 30.3233C22.2691 30.3233 22.4621 30.1303 22.4621 29.8923V26.6231H25.6205L27.8216 30.1219C27.9017 30.2495 28.0408 30.3233 28.1863 30.3233C28.226 30.3233 28.2661 30.3179 28.3058 30.3065C28.4903 30.2533 28.6173 30.0842 28.6173 29.8923V26.6231H30.2138C30.4519 26.6231 30.6448 26.4302 30.6448 26.1921C30.6448 25.954 30.4519 25.7611 30.2138 25.7611H28.6173V24.306H30.2138ZM22.4621 21.6026L23.6205 23.4439H22.4621V21.6026ZM22.4621 24.306V25.7611H25.0782L24.1628 24.306H22.4621ZM27.7552 28.3974L26.639 26.6231H27.7552V28.3974ZM26.0967 25.7611H27.7552V24.306H25.1814L26.0967 25.7611Z" fill="#E73E89"/>
<path d="M28.6173 23.4439H28.2673V23.7939H28.6173V23.4439ZM27.7552 23.4439V23.7939H28.1052V23.4439H27.7552ZM24.6391 23.4439L24.3428 23.6303L24.4458 23.7939H24.6391V23.4439ZM22.3959 19.8781L22.6922 19.6917L22.6921 19.6917L22.3959 19.8781ZM21.9117 19.6936L22.0086 20.0299L22.0095 20.0296L21.9117 19.6936ZM21.6 23.4439V23.7939H21.95V23.4439H21.6ZM21.6 24.306H21.95V23.956H21.6V24.306ZM21.6 25.7611V26.1111H21.95V25.7611H21.6ZM21.6 26.6231H21.95V26.2731H21.6V26.6231ZM22.4621 26.6231V26.2731H22.1121V26.6231H22.4621ZM25.6205 26.6231L25.9167 26.4368L25.8138 26.2731H25.6205V26.6231ZM27.8216 30.1219L28.118 29.9358L28.1178 29.9355L27.8216 30.1219ZM28.3058 30.3065L28.4027 30.6428L28.4028 30.6428L28.3058 30.3065ZM28.6173 26.6231V26.2731H28.2673V26.6231H28.6173ZM28.6173 25.7611H28.2673V26.1111H28.6173V25.7611ZM28.6173 24.306V23.956H28.2673V24.306H28.6173ZM23.6205 23.4439V23.7939H24.2541L23.9167 23.2575L23.6205 23.4439ZM22.4621 21.6026L22.7583 21.4162L22.1121 20.3889V21.6026H22.4621ZM22.4621 23.4439H22.1121V23.7939H22.4621V23.4439ZM22.4621 25.7611H22.1121V26.1111H22.4621V25.7611ZM22.4621 24.306V23.956H22.1121V24.306H22.4621ZM25.0782 25.7611V26.1111H25.7118L25.3744 25.5747L25.0782 25.7611ZM24.1628 24.306L24.459 24.1196L24.3561 23.956H24.1628V24.306ZM26.639 26.6231V26.2731H26.0054L26.3428 26.8095L26.639 26.6231ZM27.7552 28.3974L27.459 28.5838L28.1052 29.6111V28.3974H27.7552ZM27.7552 26.6231H28.1052V26.2731H27.7552V26.6231ZM27.7552 25.7611V26.1111H28.1052V25.7611H27.7552ZM26.0967 25.7611L25.8005 25.9474L25.9034 26.1111H26.0967V25.7611ZM27.7552 24.306H28.1052V23.956H27.7552V24.306ZM25.1814 24.306V23.956H24.5477L24.8851 24.4923L25.1814 24.306ZM30.2948 23.8749C30.2948 23.9197 30.2586 23.956 30.2138 23.956V24.656C30.6452 24.656 30.9948 24.3063 30.9948 23.8749H30.2948ZM30.2138 23.7939C30.2586 23.7939 30.2948 23.8302 30.2948 23.8749H30.9948C30.9948 23.4436 30.6452 23.0939 30.2138 23.0939V23.7939ZM28.6173 23.7939H30.2138V23.0939H28.6173V23.7939ZM28.2673 20.1078V23.4439H28.9673V20.1078H28.2673ZM28.1863 20.0267C28.231 20.0267 28.2673 20.063 28.2673 20.1078H28.9673C28.9673 19.6764 28.6176 19.3267 28.1863 19.3267V20.0267ZM28.1052 20.1078C28.1052 20.063 28.1415 20.0267 28.1863 20.0267V19.3267C27.7549 19.3267 27.4052 19.6764 27.4052 20.1078H28.1052ZM28.1052 23.4439V20.1078H27.4052V23.4439H28.1052ZM24.6391 23.7939H27.7552V23.0939H24.6391V23.7939ZM22.0997 20.0645L24.3428 23.6303L24.9353 23.2575L22.6922 19.6917L22.0997 20.0645ZM22.0095 20.0296C22.0427 20.02 22.0802 20.0335 22.0997 20.0646L22.6921 19.6917C22.5069 19.3974 22.1484 19.2601 21.8138 19.3575L22.0095 20.0296ZM21.95 20.1078C21.95 20.0717 21.974 20.0399 22.0086 20.0299L21.8147 19.3573C21.4803 19.4537 21.25 19.7599 21.25 20.1078H21.95ZM21.95 23.4439V20.1078H21.25V23.4439H21.95ZM19.7861 23.7939H21.6V23.0939H19.7861V23.7939ZM19.7051 23.8749C19.7051 23.8302 19.7414 23.7939 19.7861 23.7939V23.0939C19.3548 23.0939 19.0051 23.4436 19.0051 23.8749H19.7051ZM19.7861 23.956C19.7414 23.956 19.7051 23.9197 19.7051 23.8749H19.0051C19.0051 24.3063 19.3548 24.656 19.7861 24.656V23.956ZM21.6 23.956H19.7861V24.656H21.6V23.956ZM21.95 25.7611V24.306H21.25V25.7611H21.95ZM19.7861 26.1111H21.6V25.4111H19.7861V26.1111ZM19.7051 26.1921C19.7051 26.1473 19.7414 26.1111 19.7861 26.1111V25.4111C19.3548 25.4111 19.0051 25.7607 19.0051 26.1921H19.7051ZM19.7861 26.2731C19.7414 26.2731 19.7051 26.2369 19.7051 26.1921H19.0051C19.0051 26.6235 19.3548 26.9731 19.7861 26.9731V26.2731ZM21.6 26.2731H19.7861V26.9731H21.6V26.2731ZM21.95 29.8923V26.6231H21.25V29.8923H21.95ZM22.0311 29.9733C21.9863 29.9733 21.95 29.937 21.95 29.8923H21.25C21.25 30.3236 21.5997 30.6733 22.0311 30.6733V29.9733ZM22.1121 29.8923C22.1121 29.937 22.0758 29.9733 22.0311 29.9733V30.6733C22.4624 30.6733 22.8121 30.3236 22.8121 29.8923H22.1121ZM22.1121 26.6231V29.8923H22.8121V26.6231H22.1121ZM25.6205 26.2731H22.4621V26.9731H25.6205V26.2731ZM28.1178 29.9355L25.9167 26.4368L25.3242 26.8095L27.5253 30.3083L28.1178 29.9355ZM28.1863 29.9733C28.1584 29.9733 28.1326 29.9591 28.118 29.9358L27.5252 30.3081C27.6708 30.54 27.9231 30.6733 28.1863 30.6733V29.9733ZM28.2089 29.9701C28.2015 29.9723 28.1941 29.9733 28.1863 29.9733V30.6733C28.2579 30.6733 28.3306 30.6635 28.4027 30.6428L28.2089 29.9701ZM28.2673 29.8923C28.2673 29.9285 28.2433 29.9602 28.2088 29.9702L28.4028 30.6428C28.7374 30.5463 28.9673 30.2399 28.9673 29.8923H28.2673ZM28.2673 26.6231V29.8923H28.9673V26.6231H28.2673ZM30.2138 26.2731H28.6173V26.9731H30.2138V26.2731ZM30.2948 26.1921C30.2948 26.2369 30.2586 26.2731 30.2138 26.2731V26.9731C30.6452 26.9731 30.9948 26.6235 30.9948 26.1921H30.2948ZM30.2138 26.1111C30.2586 26.1111 30.2948 26.1473 30.2948 26.1921H30.9948C30.9948 25.7607 30.6452 25.4111 30.2138 25.4111V26.1111ZM28.6173 26.1111H30.2138V25.4111H28.6173V26.1111ZM28.2673 24.306V25.7611H28.9673V24.306H28.2673ZM30.2138 23.956H28.6173V24.656H30.2138V23.956ZM23.9167 23.2575L22.7583 21.4162L22.1658 21.789L23.3242 23.6303L23.9167 23.2575ZM22.4621 23.7939H23.6205V23.0939H22.4621V23.7939ZM22.1121 21.6026V23.4439H22.8121V21.6026H22.1121ZM22.8121 25.7611V24.306H22.1121V25.7611H22.8121ZM25.0782 25.4111H22.4621V26.1111H25.0782V25.4111ZM23.8665 24.4924L24.7819 25.9474L25.3744 25.5747L24.459 24.1196L23.8665 24.4924ZM22.4621 24.656H24.1628V23.956H22.4621V24.656ZM26.3428 26.8095L27.459 28.5838L28.0515 28.2111L26.9353 26.4368L26.3428 26.8095ZM27.7552 26.2731H26.639V26.9731H27.7552V26.2731ZM28.1052 28.3974V26.6231H27.4052V28.3974H28.1052ZM27.7552 25.4111H26.0967V26.1111H27.7552V25.4111ZM27.4052 24.306V25.7611H28.1052V24.306H27.4052ZM25.1814 24.656H27.7552V23.956H25.1814V24.656ZM26.393 25.5747L25.4776 24.1196L24.8851 24.4923L25.8005 25.9474L26.393 25.5747Z" fill="#E73E89"/>
</svg>
