<svg width="50" height="50" viewBox="0 0 50 50" fill="none" xmlns="http://www.w3.org/2000/svg">
<rect width="50" height="50" rx="10" fill="white"/>
<rect x="2.5" y="2.5" width="45" height="45" rx="7.5" stroke="#E73E89" stroke-opacity="0.2" stroke-width="5"/>
<path d="M21.9896 16V15.2188H20.4271V16H21.9896ZM16 20.4271H15.2188V21.9896H16V20.4271ZM34.75 21.9896H35.5312V20.4271H34.75V21.9896ZM30.3229 16V15.2188H28.7604V16H30.3229ZM28.7604 34.75V35.5312H30.3229V34.75H28.7604ZM34.75 30.3229H35.5312V28.7604H34.75V30.3229ZM16 28.7604H15.2188V30.3229H16V28.7604ZM20.4271 34.75V35.5312H21.9896V34.75H20.4271ZM20.4271 16V19.125H21.9896V16H20.4271ZM20.4271 19.125C20.4271 19.8441 19.8441 20.4271 19.125 20.4271V21.9896C20.7071 21.9896 21.9896 20.7071 21.9896 19.125H20.4271ZM19.125 20.4271H16V21.9896H19.125V20.4271ZM34.75 20.4271H31.625V21.9896H34.75V20.4271ZM31.625 20.4271C30.9059 20.4271 30.3229 19.8441 30.3229 19.125H28.7604C28.7604 20.7071 30.0429 21.9896 31.625 21.9896V20.4271ZM30.3229 19.125V16H28.7604V19.125H30.3229ZM30.3229 34.75V31.625H28.7604V34.75H30.3229ZM30.3229 31.625C30.3229 30.9059 30.9059 30.3229 31.625 30.3229V28.7604C30.0429 28.7604 28.7604 30.0429 28.7604 31.625H30.3229ZM31.625 30.3229H34.75V28.7604H31.625V30.3229ZM16 30.3229H19.125V28.7604H16V30.3229ZM19.125 30.3229C19.8441 30.3229 20.4271 30.9059 20.4271 31.625H21.9896C21.9896 30.0429 20.7071 28.7604 19.125 28.7604V30.3229ZM20.4271 31.625V34.75H21.9896V31.625H20.4271Z" fill="#E73E89"/>
</svg>
