<svg width="190" height="65" viewBox="0 0 190 65" fill="none" xmlns="http://www.w3.org/2000/svg">
<rect width="190" height="65" rx="5" fill="#181426"/>
<path fill-rule="evenodd" clip-rule="evenodd" d="M49.8772 31.7638C49.8425 27.9011 53.036 26.0219 53.182 25.9344C51.3734 23.2942 48.5701 22.9334 47.585 22.9047C45.2306 22.6566 42.9467 24.3153 41.7474 24.3153C40.5241 24.3153 38.6772 22.9287 36.6866 22.9694C34.1251 23.009 31.7287 24.4939 30.4145 26.7997C27.7021 31.5013 29.725 38.4105 32.3236 42.2108C33.6235 44.0732 35.1425 46.1502 37.1307 46.0771C39.0757 45.998 39.8023 44.8354 42.1496 44.8354C44.4753 44.8354 45.1576 46.0771 47.1852 46.0291C49.2727 45.998 50.587 44.1607 51.8414 42.2815C53.3436 40.1506 53.9469 38.0473 53.9708 37.9395C53.923 37.9239 49.9179 36.3934 49.8772 31.7638Z" fill="white"/>
<path fill-rule="evenodd" clip-rule="evenodd" d="M46.0469 20.4047C47.093 19.0948 47.8088 17.3126 47.6101 15.5042C46.0959 15.5713 44.2023 16.5528 43.1119 17.834C42.1471 18.9629 41.2853 20.8134 41.508 22.5535C43.2089 22.6806 44.9552 21.6942 46.0469 20.4047Z" fill="white"/>
<path fill-rule="evenodd" clip-rule="evenodd" d="M78.0503 45.81H75.332L73.843 41.1252H68.6673L67.2489 45.81H64.6024L69.7314 29.8608H72.8986L78.0503 45.81ZM73.3941 39.1597L72.0475 34.9963C71.9051 34.5696 71.637 33.5677 71.2443 31.9905H71.1965C71.0385 32.6688 70.7859 33.6708 70.44 34.9963L69.1161 39.1597H73.3941Z" fill="white"/>
<path fill-rule="evenodd" clip-rule="evenodd" d="M91.2146 39.9184C91.2146 41.8743 90.6844 43.4203 89.6227 44.5553C88.6723 45.5656 87.4909 46.0701 86.082 46.0701C84.5607 46.0701 83.4666 45.5272 82.8023 44.4378V50.4721H80.2504V38.0895C80.2504 36.8611 80.2181 35.6015 80.1558 34.3096H82.4001L82.5426 36.1336H82.5905C83.4415 34.759 84.733 34.0723 86.4663 34.0723C87.8212 34.0723 88.9524 34.608 89.8573 35.6806C90.761 36.7556 91.2146 38.1674 91.2146 39.9184ZM88.6148 40.0119C88.6148 38.8925 88.3635 37.9697 87.8583 37.2434C87.3065 36.4872 86.5656 36.1073 85.6368 36.1073C85.0071 36.1073 84.435 36.3182 83.9239 36.7353C83.4116 37.1535 83.0764 37.7012 82.9196 38.3808C82.8406 38.696 82.8011 38.9536 82.8011 39.1574V41.0773C82.8011 41.9114 83.0573 42.6173 83.5696 43.195C84.0819 43.7703 84.7474 44.0591 85.5661 44.0591C86.5273 44.0591 87.2754 43.6864 87.8105 42.9469C88.3467 42.2051 88.6148 41.2271 88.6148 40.0119Z" fill="white"/>
<path fill-rule="evenodd" clip-rule="evenodd" d="M104.426 39.9184C104.426 41.8743 103.895 43.4203 102.834 44.5553C101.882 45.5656 100.702 46.0701 99.2918 46.0701C97.7717 46.0701 96.6776 45.5272 96.0121 44.4378V50.4721H93.4602V38.0895C93.4602 36.8611 93.4278 35.6015 93.3656 34.3096H95.6099L95.7524 36.1336H95.8002C96.6501 34.759 97.9416 34.0723 99.676 34.0723C101.03 34.0723 102.162 34.608 103.068 35.6806C103.971 36.7556 104.426 38.1674 104.426 39.9184ZM101.825 40.0119C101.825 38.8925 101.572 37.9697 101.067 37.2434C100.516 36.4872 99.7766 36.1073 98.8477 36.1073C98.2181 36.1073 97.646 36.3182 97.1325 36.7353C96.6214 37.1535 96.2862 37.7012 96.1294 38.3808C96.0516 38.696 96.0097 38.9536 96.0097 39.1574V41.0773C96.0097 41.9114 96.2671 42.6173 96.777 43.195C97.2893 43.7691 97.9548 44.0591 98.7759 44.0591C99.7383 44.0591 100.486 43.6864 101.02 42.9469C101.556 42.2051 101.825 41.2271 101.825 40.0119Z" fill="white"/>
<path fill-rule="evenodd" clip-rule="evenodd" d="M119.196 41.3374C119.196 42.694 118.723 43.7978 117.78 44.6499C116.744 45.58 115.296 46.0462 113.441 46.0462C111.727 46.0462 110.353 45.7154 109.316 45.0526L109.907 42.9229C111.026 43.5857 112.255 43.9177 113.593 43.9177C114.556 43.9177 115.304 43.6996 115.838 43.2669C116.374 42.8319 116.643 42.253 116.643 41.5291C116.643 40.8808 116.42 40.3367 115.98 39.8944C115.538 39.4546 114.808 39.0423 113.784 38.666C110.995 37.6245 109.599 36.1001 109.599 34.0974C109.599 32.7887 110.092 31.7173 111.075 30.8796C112.059 30.043 113.363 29.6248 114.986 29.6248C116.436 29.6248 117.644 29.8776 118.603 30.3822L117.962 32.4651C117.06 31.9761 116.041 31.7317 114.901 31.7317C114.001 31.7317 113.294 31.9534 112.79 32.3944C112.365 32.7887 112.148 33.2693 112.148 33.8398C112.148 34.469 112.394 34.9915 112.883 35.4002C113.307 35.7789 114.08 36.19 115.198 36.631C116.57 37.1847 117.577 37.8295 118.223 38.5701C118.873 39.3108 119.196 40.2348 119.196 41.3374Z" fill="white"/>
<path fill-rule="evenodd" clip-rule="evenodd" d="M127.655 36.2271H124.842V41.8108C124.842 43.231 125.338 43.9393 126.331 43.9393C126.787 43.9393 127.166 43.9009 127.465 43.8206L127.536 45.7609C127.033 45.9491 126.371 46.0438 125.552 46.0438C124.543 46.0438 123.757 45.7346 123.187 45.1198C122.62 44.5037 122.336 43.4719 122.336 42.0193V36.2223H120.661V34.3048H122.336V32.1991L124.842 31.4417V34.3048H127.655V36.2271Z" fill="white"/>
<path fill-rule="evenodd" clip-rule="evenodd" d="M140.322 39.965C140.322 41.7327 139.818 43.184 138.809 44.319C137.754 45.4863 136.351 46.0699 134.602 46.0699C132.915 46.0699 131.573 45.5103 130.572 44.3909C129.572 43.2715 129.071 41.8597 129.071 40.1567C129.071 38.3746 129.59 36.9149 130.619 35.7799C131.651 34.645 133.042 34.0757 134.79 34.0757C136.477 34.0757 137.829 34.6378 138.855 35.7559C139.834 36.8429 140.322 38.244 140.322 39.965ZM137.676 40.0237C137.676 38.9702 137.449 38.0666 136.993 37.3103C136.458 36.3971 135.69 35.9417 134.699 35.9417C133.678 35.9417 132.892 36.3971 132.359 37.3103C131.901 38.0666 131.675 38.9858 131.675 40.0716C131.675 41.1263 131.901 42.0323 132.359 42.7849C132.911 43.6994 133.681 44.156 134.679 44.156C135.653 44.156 136.418 43.6886 136.972 42.7634C137.44 41.9892 137.676 41.0795 137.676 40.0237Z" fill="white"/>
<path fill-rule="evenodd" clip-rule="evenodd" d="M148.62 36.5567C148.368 36.5099 148.097 36.4872 147.816 36.4872C146.918 36.4872 146.224 36.8239 145.735 37.5047C145.311 38.1039 145.099 38.8613 145.099 39.7758V45.8101H142.547V37.9313C142.547 36.607 142.522 35.3978 142.473 34.3108H144.695L144.789 36.5111H144.859C145.13 35.7549 145.554 35.1449 146.135 34.6895C146.705 34.2772 147.318 34.0723 147.98 34.0723C148.216 34.0723 148.429 34.0902 148.618 34.119L148.62 36.5567Z" fill="white"/>
<path fill-rule="evenodd" clip-rule="evenodd" d="M160.033 39.5156C160.033 39.9734 160.003 40.3593 159.94 40.6745H152.285C152.313 41.8107 152.685 42.6808 153.395 43.28C154.04 43.8145 154.876 44.083 155.899 44.083C157.032 44.083 158.067 43.9032 158.997 43.5389L159.396 45.3126C158.31 45.786 157.025 46.0233 155.546 46.0233C153.765 46.0233 152.367 45.4984 151.349 44.4509C150.335 43.4022 149.826 41.9916 149.826 40.2275C149.826 38.4945 150.297 37.0504 151.245 35.8986C152.236 34.669 153.576 34.0542 155.261 34.0542C156.916 34.0542 158.17 34.669 159.019 35.8986C159.695 36.873 160.033 38.081 160.033 39.5156ZM157.6 38.8529C157.618 38.0942 157.45 37.4423 157.104 36.8886C156.663 36.1767 155.983 35.8219 155.072 35.8219C154.236 35.8219 153.558 36.1683 153.041 36.8634C152.616 37.4159 152.363 38.081 152.285 38.8505L157.6 38.8529Z" fill="white"/>
<path fill-rule="evenodd" clip-rule="evenodd" d="M72.1636 24.1524H70.8266L70.0952 21.8502H67.5517L66.8538 24.1524H65.5527L68.0736 16.3132H69.6296L72.1636 24.1524ZM69.875 20.8842L69.2131 18.8372C69.1436 18.6275 69.0156 18.1397 68.8181 17.3607H68.7941C68.7127 17.6975 68.5966 18.1864 68.4219 18.8372L67.7719 20.8842H69.875Z" fill="white"/>
<path fill-rule="evenodd" clip-rule="evenodd" d="M78.4668 18.5005L76.329 24.1525H75.1093L73.041 18.5005H74.3887L75.3535 21.4895C75.5163 21.9892 75.6551 22.4662 75.7593 22.9192H75.794C75.8874 22.513 76.0262 22.036 76.1998 21.4895L77.1526 18.5005H78.4668Z" fill="white"/>
<path fill-rule="evenodd" clip-rule="evenodd" d="M83.0177 24.1525L82.9244 23.5017H82.8896C82.5066 24.0255 81.9488 24.2807 81.2402 24.2807C80.23 24.2807 79.5094 23.5712 79.5094 22.6173C79.5094 21.2222 80.7171 20.5008 82.8083 20.5008V20.3965C82.8083 19.6523 82.4133 19.2795 81.6352 19.2795C81.0774 19.2795 80.5891 19.4198 80.1606 19.699L79.9056 18.8733C80.4287 18.5473 81.0786 18.3843 81.8459 18.3843C83.3206 18.3843 84.0651 19.1633 84.0651 20.7225V22.8042C84.0651 23.3747 84.089 23.8169 84.1465 24.1537L83.0177 24.1525ZM82.843 21.3373C81.4485 21.3373 80.7519 21.6753 80.7519 22.477C80.7519 23.0703 81.1121 23.3603 81.6113 23.3603C82.2505 23.3603 82.843 22.8725 82.843 22.2098V21.3373Z" fill="white"/>
<path fill-rule="evenodd" clip-rule="evenodd" d="M86.8588 17.5693C86.4411 17.5693 86.1155 17.2433 86.1155 16.8131C86.1155 16.3828 86.4518 16.0688 86.8827 16.0688C87.3124 16.0688 87.6608 16.3828 87.6488 16.8131C87.6488 17.2673 87.3244 17.5693 86.8588 17.5693ZM86.2555 18.5005H87.5099V24.1525H86.2555V18.5005Z" fill="white"/>
<path fill-rule="evenodd" clip-rule="evenodd" d="M89.7387 15.907H90.9931V24.1524H89.7387V15.907Z" fill="white"/>
<path fill-rule="evenodd" clip-rule="evenodd" d="M96.3245 24.1525L96.2299 23.5017H96.1964C95.8134 24.0254 95.2556 24.2807 94.547 24.2807C93.5367 24.2807 92.8162 23.5712 92.8162 22.6172C92.8162 21.2222 94.0239 20.5007 96.115 20.5007V20.3965C96.115 19.6522 95.72 19.2795 94.942 19.2795C94.3842 19.2795 93.8958 19.4197 93.4673 19.699L93.2112 18.872C93.7342 18.546 94.3842 18.3831 95.1515 18.3831C96.6261 18.3831 97.3718 19.1621 97.3718 20.7213V22.803C97.3718 23.3735 97.3958 23.8157 97.4508 24.1525H96.3245ZM96.1497 21.3373C94.7553 21.3373 94.0586 21.6752 94.0586 22.477C94.0586 23.0703 94.4189 23.3603 94.918 23.3603C95.5572 23.3603 96.1497 22.8725 96.1497 22.2098V21.3373Z" fill="white"/>
<path fill-rule="evenodd" clip-rule="evenodd" d="M102.453 24.2807C101.652 24.2807 101.061 23.9427 100.677 23.28H100.653L100.581 24.1524H99.5132C99.5467 23.6994 99.5587 23.1865 99.5587 22.6292V15.907H100.815V19.3274H100.838C101.21 18.6994 101.814 18.3854 102.638 18.3854C103.998 18.3854 104.951 19.5491 104.951 21.2462C104.951 23.0007 103.893 24.2807 102.453 24.2807ZM102.198 19.3718C101.476 19.3718 100.815 19.9997 100.815 20.8722V21.861C100.815 22.64 101.409 23.28 102.175 23.28C103.115 23.28 103.675 22.5129 103.675 21.2917C103.674 20.152 103.092 19.3718 102.198 19.3718Z" fill="white"/>
<path fill-rule="evenodd" clip-rule="evenodd" d="M106.807 15.907H108.061V24.1524H106.807V15.907Z" fill="white"/>
<path fill-rule="evenodd" clip-rule="evenodd" d="M114.888 21.6286H111.123C111.148 22.6988 111.854 23.3028 112.899 23.3028C113.458 23.3028 113.969 23.2093 114.421 23.0356L114.617 23.908C114.083 24.1405 113.456 24.2568 112.724 24.2568C110.957 24.2568 109.912 23.1398 109.912 21.408C109.912 19.675 110.983 18.3723 112.584 18.3723C114.023 18.3723 114.931 19.4425 114.931 21.0593C114.935 21.2798 114.924 21.4775 114.888 21.6286ZM113.739 20.7333C113.739 19.8608 113.296 19.2448 112.494 19.2448C111.774 19.2448 111.206 19.8728 111.123 20.7333H113.739Z" fill="white"/>
<path fill-rule="evenodd" clip-rule="evenodd" d="M122.491 24.2807C120.842 24.2807 119.773 23.0475 119.773 21.3733C119.773 19.6283 120.865 18.3843 122.586 18.3843C124.21 18.3843 125.304 19.5588 125.304 21.281C125.304 23.0475 124.177 24.2807 122.491 24.2807ZM122.539 19.3023C121.633 19.3023 121.053 20.1508 121.053 21.3373C121.053 22.501 121.645 23.3495 122.527 23.3495C123.41 23.3495 124.002 22.4423 124.002 21.3133C124.002 20.1628 123.422 19.3023 122.539 19.3023Z" fill="white"/>
<path fill-rule="evenodd" clip-rule="evenodd" d="M132.048 24.1525H130.796V20.907C130.796 19.9075 130.412 19.4065 129.656 19.4065C128.913 19.4065 128.401 20.0465 128.401 20.7908V24.1525H127.149V20.116C127.149 19.6163 127.134 19.0806 127.101 18.4993H128.205L128.263 19.3718H128.299C128.633 18.7678 129.32 18.3831 130.087 18.3831C131.27 18.3831 132.048 19.2903 132.048 20.7668V24.1525Z" fill="white"/>
<path fill-rule="evenodd" clip-rule="evenodd" d="M140.256 19.4425H138.876V22.187C138.876 22.8857 139.119 23.2344 139.606 23.2344C139.826 23.2344 140.014 23.2105 140.164 23.1757L140.198 24.1297C139.954 24.2232 139.627 24.2699 139.224 24.2699C138.234 24.2699 137.645 23.7234 137.645 22.2924V19.4425H136.823V18.5005H137.645V17.465L138.876 17.0923V18.4993H140.256V19.4425Z" fill="white"/>
<path fill-rule="evenodd" clip-rule="evenodd" d="M146.899 24.1524H145.643V20.931C145.643 19.9195 145.259 19.4077 144.505 19.4077C143.855 19.4077 143.252 19.8499 143.252 20.7452V24.1524H141.996V15.907H143.252V19.3022H143.276C143.669 18.6862 144.24 18.383 144.972 18.383C146.168 18.383 146.899 19.313 146.899 20.7907V24.1524Z" fill="white"/>
<path fill-rule="evenodd" clip-rule="evenodd" d="M153.309 21.6286H149.544C149.568 22.6988 150.274 23.3028 151.32 23.3028C151.881 23.3028 152.391 23.2093 152.841 23.0356L153.037 23.908C152.504 24.1405 151.876 24.2568 151.143 24.2568C149.378 24.2568 148.333 23.1398 148.333 21.408C148.333 19.675 149.402 18.3723 151.003 18.3723C152.443 18.3723 153.351 19.4425 153.351 21.0593C153.355 21.2798 153.343 21.4775 153.309 21.6286ZM152.158 20.7333C152.158 19.8608 151.718 19.2448 150.916 19.2448C150.195 19.2448 149.627 19.8728 149.544 20.7333H152.158Z" fill="white"/>
</svg>
