<svg width="89" height="46" viewBox="0 0 89 46" fill="none" xmlns="http://www.w3.org/2000/svg">
<rect width="89" height="46" fill="#EEEBEB"/>
<g clip-path="url(#clip0)">
<rect width="1440" height="4813" transform="translate(-220 -4632)" fill="white"/>
<rect x="-220" y="-1064" width="1440" height="1248" fill="#3A2E91" stroke="#3A2E91"/>
<g clip-path="url(#clip1)">
<rect width="89" height="46" rx="5" fill="black" fill-opacity="0.299473"/>
<g clip-path="url(#clip2)">
<path fill-rule="evenodd" clip-rule="evenodd" d="M30.927 13C31.001 15.66 29.1 17.504 27.2 17.388C26.887 15.266 29.1 13 30.927 13ZM19 23.812C19 26.907 21.463 32.983 24.44 33H24.459C25.1994 33 25.8522 32.7561 26.4293 32.5404L26.433 32.539C26.856 32.381 27.255 32.232 27.571 32.232C28.194 32.232 28.572 32.392 29.009 32.578L29.0153 32.5807C29.4457 32.763 29.9343 32.97 30.623 32.97C33.455 32.97 35.405 27.723 35.405 27.478C35.405 27.1054 35.1206 26.9344 34.8449 26.7686L34.844 26.768L34.8439 26.768C34.2189 26.3919 32.919 25.6099 32.919 23.578C32.919 21.861 34.067 20.995 34.697 20.52L35.137 20.188L34.831 19.728C33.523 17.765 31.35 17.608 30.633 17.608H30.627C29.6698 17.608 28.8479 17.9341 28.1859 18.1967L28.18 18.199L28.1792 18.1993C27.8684 18.3232 27.5179 18.463 27.368 18.463C27.119 18.463 26.67 18.298 26.236 18.138C25.616 17.909 24.913 17.651 24.254 17.651C22.793 17.651 19 18.757 19 23.812Z" fill="white"/>
<path d="M48.918 30V23.7H47.882V30H48.918ZM47.686 21.642C47.686 22.076 47.994 22.356 48.4 22.356C48.806 22.356 49.1 22.048 49.1 21.642C49.184 20.732 47.616 20.732 47.686 21.642ZM55.3751 30.154C56.7611 30.154 57.9091 29.692 58.8331 28.768C59.7711 27.83 60.2331 26.668 60.2331 25.282C60.2331 23.896 59.7711 22.734 58.8471 21.81C57.9231 20.872 56.7611 20.41 55.3751 20.41C53.9891 20.41 52.8271 20.872 51.8891 21.81C50.9651 22.734 50.5031 23.896 50.5031 25.282C50.5031 26.668 50.9651 27.83 51.8891 28.768C52.8271 29.692 53.9891 30.154 55.3751 30.154ZM52.7291 22.594C53.4431 21.866 54.3251 21.502 55.3751 21.502C56.4251 21.502 57.3071 21.866 58.0071 22.594C58.7211 23.308 59.0711 24.204 59.0711 25.282C59.0711 26.36 58.7211 27.256 58.0071 27.97C57.3071 28.684 56.4251 29.048 55.3751 29.048C54.3251 29.048 53.4431 28.684 52.7291 27.97C52.0151 27.256 51.6651 26.36 51.6651 25.282C51.6651 24.204 52.0151 23.308 52.7291 22.594ZM68.1726 22.51C68.0186 21.908 67.6406 21.404 67.0386 21.012C66.4506 20.606 65.7366 20.41 64.9106 20.41C64.0006 20.41 63.2446 20.662 62.6566 21.166C62.0686 21.656 61.7746 22.3 61.7746 23.084C61.7746 23.7 61.9426 24.176 62.3066 24.512C62.5866 24.778 62.6986 24.918 63.1046 25.1L63.5666 25.31C63.6646 25.352 63.8466 25.422 64.0986 25.506L64.6306 25.66C64.7286 25.674 64.9106 25.73 65.1906 25.8C65.8066 25.954 66.1706 26.08 66.6186 26.318C67.0806 26.556 67.3186 26.92 67.3186 27.41C67.3186 27.886 67.0946 28.278 66.6606 28.586C66.2266 28.894 65.6946 29.048 65.0366 29.048C64.4066 29.048 63.8746 28.908 63.4266 28.614C62.9786 28.32 62.7126 27.97 62.6426 27.55L61.5226 27.886C61.6906 28.544 62.0966 29.076 62.7266 29.51C63.3566 29.944 64.1266 30.154 65.0366 30.154C66.0306 30.154 66.8566 29.888 67.4866 29.37C68.1306 28.852 68.4526 28.166 68.4526 27.326C68.3966 26.206 67.9206 25.618 67.0806 25.24C66.4786 24.946 66.1566 24.862 65.4986 24.708C64.6026 24.484 64.2246 24.358 63.6646 24.092C63.1186 23.826 62.8946 23.476 62.8946 23.014C62.8946 22.132 63.7766 21.502 64.9386 21.502C66.0166 21.502 66.8846 22.076 67.0386 22.846L68.1726 22.51Z" fill="white"/>
</g>
</g>
</g>
<defs>
<clipPath id="clip0">
<rect width="1440" height="4813" fill="white" transform="translate(-220 -4632)"/>
</clipPath>
<clipPath id="clip1">
<rect width="354" height="193" fill="white" transform="translate(-116 -97)"/>
</clipPath>
<clipPath id="clip2">
<rect width="51" height="20" fill="white" transform="translate(19 13)"/>
</clipPath>
</defs>
</svg>
